<svg width="1280" height="720" viewBox="0 0 1280 720" fill="none" xmlns="http://www.w3.org/2000/svg">
  <defs>
    <linearGradient id="bg" x1="0" y1="0" x2="1280" y2="720" gradientUnits="userSpaceOnUse">
      <stop stop-color="#ECFCCB"/>
      <stop offset="1" stop-color="#E2E8F0"/>
    </linearGradient>
  </defs>
  <rect width="1280" height="720" fill="url(#bg)"/>
  <rect x="110" y="95" width="1060" height="530" rx="24" fill="#FFFFFF" stroke="#CBD5E1"/>
  <rect x="160" y="170" width="210" height="290" rx="18" fill="#F8FAFC" stroke="#E2E8F0"/>
  <circle cx="265" cy="250" r="58" fill="#22C55E"/>
  <path d="M230 248C245 238 285 236 301 247" stroke="#0F172A" stroke-width="7" stroke-linecap="round"/>
  <path d="M238 270C250 262 281 261 293 269" stroke="#0F172A" stroke-width="6" stroke-linecap="round"/>
  <path d="M245 291C254 286 275 285 284 290" stroke="#0F172A" stroke-width="5" stroke-linecap="round"/>
  <rect x="420" y="170" width="700" height="95" rx="16" fill="#F8FAFC" stroke="#E2E8F0"/>
  <rect x="450" y="202" width="250" height="16" rx="8" fill="#0F172A"/>
  <rect x="450" y="228" width="180" height="12" rx="6" fill="#64748B"/>
  <rect x="420" y="290" width="700" height="250" rx="16" fill="#F8FAFC" stroke="#E2E8F0"/>
  <rect x="460" y="330" width="90" height="170" rx="10" fill="#86EFAC"/>
  <rect x="582" y="365" width="90" height="135" rx="10" fill="#4ADE80"/>
  <rect x="704" y="315" width="90" height="185" rx="10" fill="#22C55E"/>
  <rect x="826" y="346" width="90" height="154" rx="10" fill="#16A34A"/>
  <rect x="948" y="392" width="90" height="108" rx="10" fill="#15803D"/>
  <text x="160" y="538" fill="#0F172A" font-family="IBM Plex Sans, sans-serif" font-size="36" font-weight="700">
    Spotify Stats App
  </text>
</svg>
